<svg width="16" height="16" viewBox="0 0 16 16" fill="none" xmlns="http://www.w3.org/2000/svg">
<path d="M7.5 5.23134C6.876 5.40201 6.5 5.88134 6.5 6.33334C6.5 6.78534 6.876 7.26467 7.5 7.43467V5.23134ZM8.5 8.56534V10.768C9.124 10.598 9.5 10.1187 9.5 9.66667C9.5 9.21467 9.124 8.73534 8.5 8.56534Z" fill="#17B26A"/>
<path fill-rule="evenodd" clip-rule="evenodd" d="M14.6668 8C14.6668 11.682 11.6822 14.6667 8.00016 14.6667C4.31816 14.6667 1.3335 11.682 1.3335 8C1.3335 4.318 4.31816 1.33333 8.00016 1.33333C11.6822 1.33333 14.6668 4.318 14.6668 8ZM8.00016 3.49999C8.13277 3.49999 8.25995 3.55267 8.35372 3.64644C8.44748 3.74021 8.50016 3.86739 8.50016 3.99999V4.21133C9.58683 4.40599 10.5002 5.22266 10.5002 6.33333C10.5002 6.46594 10.4475 6.59311 10.3537 6.68688C10.2599 6.78065 10.1328 6.83333 10.0002 6.83333C9.86755 6.83333 9.74038 6.78065 9.64661 6.68688C9.55284 6.59311 9.50016 6.46594 9.50016 6.33333C9.50016 5.88133 9.12416 5.402 8.50016 5.23133V7.54466C9.58683 7.73933 10.5002 8.55599 10.5002 9.66666C10.5002 10.7773 9.58683 11.594 8.50016 11.7887V12C8.50016 12.1326 8.44748 12.2598 8.35372 12.3535C8.25995 12.4473 8.13277 12.5 8.00016 12.5C7.86755 12.5 7.74038 12.4473 7.64661 12.3535C7.55284 12.2598 7.50016 12.1326 7.50016 12V11.7887C6.4135 11.594 5.50016 10.7773 5.50016 9.66666C5.50016 9.53405 5.55284 9.40688 5.64661 9.31311C5.74038 9.21934 5.86755 9.16666 6.00016 9.16666C6.13277 9.16666 6.25995 9.21934 6.35372 9.31311C6.44748 9.40688 6.50016 9.53405 6.50016 9.66666C6.50016 10.1187 6.87616 10.598 7.50016 10.768V8.45533C6.4135 8.26066 5.50016 7.44399 5.50016 6.33333C5.50016 5.22266 6.4135 4.40599 7.50016 4.21133V3.99999C7.50016 3.86739 7.55284 3.74021 7.64661 3.64644C7.74038 3.55267 7.86755 3.49999 8.00016 3.49999Z" fill="#17B26A"/>
</svg>
