<svg width="16" height="16" viewBox="0 0 16 16" fill="none" xmlns="http://www.w3.org/2000/svg">
<path fill-rule="evenodd" clip-rule="evenodd" d="M8 1.33334C9.5913 1.33334 11.1174 1.96548 12.2426 3.0907C13.3679 4.21591 14 5.74204 14 7.33334C14 9.38267 12.8827 11.06 11.7053 12.2633C11.1171 12.858 10.4753 13.3972 9.788 13.874L9.504 14.0673L9.37067 14.156L9.11933 14.316L8.89533 14.4527L8.618 14.614C8.42976 14.7215 8.21675 14.778 8 14.778C7.78325 14.778 7.57024 14.7215 7.382 14.614L7.10467 14.4527L6.758 14.2393L6.63 14.156L6.35667 13.974C5.61522 13.4724 4.9246 12.8994 4.29467 12.2633C3.11733 11.0593 2 9.38267 2 7.33334C2 5.74204 2.63214 4.21591 3.75736 3.0907C4.88258 1.96548 6.4087 1.33334 8 1.33334ZM8 2.66667C6.76232 2.66667 5.57534 3.15833 4.70017 4.0335C3.825 4.90867 3.33333 6.09566 3.33333 7.33334C3.33333 8.88134 4.18133 10.24 5.24733 11.3307C5.70569 11.7947 6.20111 12.2205 6.72867 12.604L7.034 12.8213C7.13267 12.8902 7.22756 12.9542 7.31867 13.0133L7.57867 13.18L7.80733 13.3193L8 13.432L8.30333 13.2527L8.548 13.0993C8.67822 13.0167 8.81756 12.924 8.966 12.8213L9.27133 12.604C9.79889 12.2205 10.2943 11.7947 10.7527 11.3307C11.8187 10.2407 12.6667 8.88134 12.6667 7.33334C12.6667 6.09566 12.175 4.90867 11.2998 4.0335C10.4247 3.15833 9.23768 2.66667 8 2.66667ZM8 4.66667C8.70724 4.66667 9.38552 4.94762 9.88562 5.44772C10.3857 5.94781 10.6667 6.62609 10.6667 7.33334C10.6667 8.04058 10.3857 8.71886 9.88562 9.21895C9.38552 9.71905 8.70724 10 8 10C7.29276 10 6.61448 9.71905 6.11438 9.21895C5.61428 8.71886 5.33333 8.04058 5.33333 7.33334C5.33333 6.62609 5.61428 5.94781 6.11438 5.44772C6.61448 4.94762 7.29276 4.66667 8 4.66667ZM8 6C7.64638 6 7.30724 6.14048 7.05719 6.39053C6.80714 6.64058 6.66667 6.97971 6.66667 7.33334C6.66667 7.68696 6.80714 8.0261 7.05719 8.27614C7.30724 8.52619 7.64638 8.66667 8 8.66667C8.35362 8.66667 8.69276 8.52619 8.94281 8.27614C9.19286 8.0261 9.33333 7.68696 9.33333 7.33334C9.33333 6.97971 9.19286 6.64058 8.94281 6.39053C8.69276 6.14048 8.35362 6 8 6Z" fill="#6D6D6D"/>
</svg>
