<svg width="16" height="16" viewBox="0 0 16 16" fill="none" xmlns="http://www.w3.org/2000/svg">
<path d="M12.6668 2.66666H11.3335V1.99999C11.3335 1.82318 11.2633 1.65361 11.1382 1.52859C11.0132 1.40357 10.8436 1.33333 10.6668 1.33333C10.49 1.33333 10.3204 1.40357 10.1954 1.52859C10.0704 1.65361 10.0002 1.82318 10.0002 1.99999V2.66666H6.00016V1.99999C6.00016 1.82318 5.92992 1.65361 5.8049 1.52859C5.67988 1.40357 5.51031 1.33333 5.3335 1.33333C5.15669 1.33333 4.98712 1.40357 4.86209 1.52859C4.73707 1.65361 4.66683 1.82318 4.66683 1.99999V2.66666H3.3335C2.80306 2.66666 2.29436 2.87738 1.91928 3.25245C1.54421 3.62752 1.3335 4.13623 1.3335 4.66666V12.6667C1.3335 13.1971 1.54421 13.7058 1.91928 14.0809C2.29436 14.4559 2.80306 14.6667 3.3335 14.6667H12.6668C13.1973 14.6667 13.706 14.4559 14.081 14.0809C14.4561 13.7058 14.6668 13.1971 14.6668 12.6667V4.66666C14.6668 4.13623 14.4561 3.62752 14.081 3.25245C13.706 2.87738 13.1973 2.66666 12.6668 2.66666ZM13.3335 12.6667C13.3335 12.8435 13.2633 13.013 13.1382 13.1381C13.0132 13.2631 12.8436 13.3333 12.6668 13.3333H3.3335C3.15669 13.3333 2.98712 13.2631 2.86209 13.1381C2.73707 13.013 2.66683 12.8435 2.66683 12.6667V8H13.3335V12.6667ZM13.3335 6.66666H2.66683V4.66666C2.66683 4.48985 2.73707 4.32028 2.86209 4.19526C2.98712 4.07023 3.15669 3.99999 3.3335 3.99999H4.66683V4.66666C4.66683 4.84347 4.73707 5.01304 4.86209 5.13807C4.98712 5.26309 5.15669 5.33333 5.3335 5.33333C5.51031 5.33333 5.67988 5.26309 5.8049 5.13807C5.92992 5.01304 6.00016 4.84347 6.00016 4.66666V3.99999H10.0002V4.66666C10.0002 4.84347 10.0704 5.01304 10.1954 5.13807C10.3204 5.26309 10.49 5.33333 10.6668 5.33333C10.8436 5.33333 11.0132 5.26309 11.1382 5.13807C11.2633 5.01304 11.3335 4.84347 11.3335 4.66666V3.99999H12.6668C12.8436 3.99999 13.0132 4.07023 13.1382 4.19526C13.2633 4.32028 13.3335 4.48985 13.3335 4.66666V6.66666Z" fill="#6D6D6D"/>
</svg>
