<svg width="24" height="24" viewBox="0 0 24 24" fill="none" xmlns="http://www.w3.org/2000/svg">
<path d="M3 6.5C2.44772 6.5 2 6.94771 2 7.5V16.5C2 17.0523 2.44772 17.5 3 17.5H9.49979C9.765 17.5 10.0194 17.3946 10.2069 17.2071L14.7069 12.7071C15.0974 12.3166 15.0974 11.6834 14.7069 11.2929L10.2069 6.79289C10.0194 6.60536 9.765 6.5 9.49979 6.5H3ZM4 9.5C4 8.94771 4.44772 8.5 5 8.5H8.67179C8.937 8.5 9.19136 8.60536 9.37889 8.79289L11.8789 11.2929C12.2694 11.6834 12.2694 12.3166 11.8789 12.7071L9.37889 15.2071C9.19136 15.3946 8.937 15.5 8.67179 15.5H5C4.44772 15.5 4 15.0523 4 14.5V9.5ZM15.293 6.793C14.9025 7.18346 14.9025 7.81653 15.293 8.207L18.3789 11.2929C18.7694 11.6834 18.7694 12.3166 18.3789 12.7071L15.293 15.793C14.9025 16.1835 14.9025 16.8165 15.293 17.207C15.6835 17.5975 16.3165 17.5975 16.707 17.207L21.2069 12.7071C21.5974 12.3166 21.5974 11.6834 21.2069 11.2929L16.707 6.793C16.3165 6.40253 15.6835 6.40253 15.293 6.793Z" fill="#FF6B6B"/>
</svg>
