<svg width="20" height="16" viewBox="0 0 20 16" fill="none" xmlns="http://www.w3.org/2000/svg">
<path fill-rule="evenodd" clip-rule="evenodd" d="M6 -0.000474542C4.93913 -0.000474542 3.92172 0.420953 3.17157 1.1711C2.42143 1.92124 2 2.93866 2 3.99953C2 5.06039 2.42143 6.07781 3.17157 6.82795C3.92172 7.5781 4.93913 7.99953 6 7.99953C7.06087 7.99953 8.07828 7.5781 8.82843 6.82795C9.57857 6.07781 10 5.06039 10 3.99953C10 2.93866 9.57857 1.92124 8.82843 1.1711C8.07828 0.420953 7.06087 -0.000474542 6 -0.000474542ZM4 8.99953C2.93913 8.99953 1.92172 9.42095 1.17157 10.1711C0.421427 10.9212 0 11.9387 0 12.9995V13.9995C0 14.53 0.210714 15.0387 0.585786 15.4137C0.960859 15.7888 1.46957 15.9995 2 15.9995H10C10.5304 15.9995 11.0391 15.7888 11.4142 15.4137C11.7893 15.0387 12 14.53 12 13.9995V12.9995C12 11.9387 11.5786 10.9212 10.8284 10.1711C10.0783 9.42095 9.06087 8.99953 8 8.99953H4ZM11.25 6.90453C11.728 6.04453 12 5.05453 12 3.99953C12.0002 2.98296 11.7421 1.98302 11.25 1.09353C11.8178 0.556255 12.5306 0.197137 13.3003 0.0605544C14.07 -0.0760282 14.8628 0.0159113 15.5808 0.32501C16.2988 0.634109 16.9106 1.14682 17.3403 1.79978C17.7701 2.45273 17.9992 3.21731 17.9992 3.99903C17.9992 4.78074 17.7701 5.54532 17.3403 6.19828C16.9106 6.85123 16.2988 7.36394 15.5808 7.67304C14.8628 7.98214 14.07 8.07408 13.3003 7.9375C12.5306 7.80091 11.8178 7.4418 11.25 6.90453ZM13.466 15.9995C13.806 15.4115 14.001 14.7285 14.001 13.9995V12.9995C14.0028 11.5233 13.4586 10.0986 12.473 8.99953H16C17.0609 8.99953 18.0783 9.42095 18.8284 10.1711C19.5786 10.9212 20 11.9387 20 12.9995V13.9995C20 14.53 19.7893 15.0387 19.4142 15.4137C19.0391 15.7888 18.5304 15.9995 18 15.9995H13.466Z" fill="black"/>
</svg>
