<svg width="18" height="22" viewBox="0 0 18 22" fill="none" xmlns="http://www.w3.org/2000/svg">
<path d="M17 20C17.2652 20 17.5196 20.1054 17.7071 20.2929C17.8946 20.4804 18 20.7348 18 21C18 21.2652 17.8946 21.5196 17.7071 21.7071C17.5196 21.8947 17.2652 22 17 22H1C0.734784 22 0.48043 21.8947 0.292893 21.7071C0.105357 21.5196 0 21.2652 0 21C0 20.7348 0.105357 20.4804 0.292893 20.2929C0.48043 20.1054 0.734784 20 1 20H2.049C2.195 18.164 2.792 14.25 5.243 12C2.658 9.48902 2.132 4.26602 2.027 2.00002H1C0.734784 2.00002 0.48043 1.89466 0.292893 1.70712C0.105357 1.51959 0 1.26523 0 1.00002C0 0.734798 0.105357 0.480444 0.292893 0.292908C0.48043 0.105371 0.734784 1.52588e-05 1 1.52588e-05H17C17.2652 1.52588e-05 17.5196 0.105371 17.7071 0.292908C17.8946 0.480444 18 0.734798 18 1.00002C18 1.26523 17.8946 1.51959 17.7071 1.70712C17.5196 1.89466 17.2652 2.00002 17 2.00002H15.973C15.868 4.26402 15.342 9.48701 12.757 12C15.208 14.252 15.805 18.166 15.951 20H17ZM10.58 12.874C10.4211 12.7858 10.2893 12.6559 10.1987 12.4984C10.1081 12.3409 10.0621 12.1617 10.0657 11.98C10.0693 11.7983 10.1223 11.621 10.2191 11.4672C10.3159 11.3134 10.4528 11.1889 10.615 11.107C13.052 9.87902 13.815 4.79601 13.97 2.00002H4.03C4.181 4.80001 4.948 9.87902 7.385 11.107C7.54724 11.1889 7.6841 11.3134 7.78088 11.4672C7.87765 11.621 7.93069 11.7983 7.93429 11.98C7.93789 12.1617 7.89191 12.3409 7.8013 12.4984C7.71069 12.6559 7.57887 12.7858 7.42 12.874C4.881 14.283 4.227 18.156 4.058 20H13.942C13.773 18.156 13.119 14.283 10.58 12.874ZM9 10C9 10 12 7.60001 12 6.40001V3.00002H6V6.40001C6 7.60001 9 10 9 10Z" fill="#FB903E"/>
</svg>
