<svg width="24" height="24" viewBox="0 0 24 24" fill="none" xmlns="http://www.w3.org/2000/svg">
<g clip-path="url(#clip0_1508_12486)">
<path d="M11.1673 5.33325V8.66659C11.1673 9.32963 10.9039 9.96551 10.4351 10.4344C9.96624 10.9032 9.33036 11.1666 8.66732 11.1666H5.33398C4.67094 11.1666 4.03506 10.9032 3.56622 10.4344C3.09738 9.96551 2.83398 9.32963 2.83398 8.66659V5.33325C2.83398 4.67021 3.09738 4.03433 3.56622 3.56549C4.03506 3.09664 4.67094 2.83325 5.33398 2.83325H8.66732C9.33036 2.83325 9.96624 3.09664 10.4351 3.56549C10.9039 4.03433 11.1673 4.67021 11.1673 5.33325ZM18.6673 2.83325H15.334C14.6709 2.83325 14.0351 3.09664 13.5662 3.56549C13.0974 4.03433 12.834 4.67021 12.834 5.33325V8.66659C12.834 9.32963 13.0974 9.96551 13.5662 10.4344C14.0351 10.9032 14.6709 11.1666 15.334 11.1666H18.6673C19.3304 11.1666 19.9662 10.9032 20.4351 10.4344C20.9039 9.96551 21.1673 9.32963 21.1673 8.66659V5.33325C21.1673 4.67021 20.9039 4.03433 20.4351 3.56549C19.9662 3.09664 19.3304 2.83325 18.6673 2.83325ZM8.66732 12.8333H5.33398C4.67094 12.8333 4.03506 13.0966 3.56622 13.5655C3.09738 14.0343 2.83398 14.6702 2.83398 15.3333V18.6666C2.83398 19.3296 3.09738 19.9655 3.56622 20.4344C4.03506 20.9032 4.67094 21.1666 5.33398 21.1666H8.66732C9.33036 21.1666 9.96624 20.9032 10.4351 20.4344C10.9039 19.9655 11.1673 19.3296 11.1673 18.6666V15.3333C11.1673 14.6702 10.9039 14.0343 10.4351 13.5655C9.96624 13.0966 9.33036 12.8333 8.66732 12.8333ZM18.6673 12.8333H15.334C14.6709 12.8333 14.0351 13.0966 13.5662 13.5655C13.0974 14.0343 12.834 14.6702 12.834 15.3333V18.6666C12.834 19.3296 13.0974 19.9655 13.5662 20.4344C14.0351 20.9032 14.6709 21.1666 15.334 21.1666H18.6673C19.3304 21.1666 19.9662 20.9032 20.4351 20.4344C20.9039 19.9655 21.1673 19.3296 21.1673 18.6666V15.3333C21.1673 14.6702 20.9039 14.0343 20.4351 13.5655C19.9662 13.0966 19.3304 12.8333 18.6673 12.8333Z" fill="#FFF9EB"/>
</g>
<defs>
<clipPath id="clip0_1508_12486">
<rect width="20" height="20" fill="white" transform="translate(2 2)"/>
</clipPath>
</defs>
</svg>
