<svg width="20" height="20" viewBox="0 0 20 20" fill="none" xmlns="http://www.w3.org/2000/svg">
<path d="M17.1129 10.6765H15.5662C15.7238 11.1081 15.81 11.5739 15.81 12.0594V17.9051C15.81 18.1076 15.7747 18.3019 15.7106 18.4826H18.2677C19.2229 18.4826 20 17.7054 20 16.7503V13.5635C20 11.9716 18.7048 10.6765 17.1129 10.6765ZM4.19004 12.0595C4.19004 11.5739 4.27617 11.1081 4.43383 10.6765H2.88711C1.29516 10.6765 0 11.9717 0 13.5636V16.7504C0 17.7055 0.77707 18.4826 1.73227 18.4826H4.28937C4.22356 18.2972 4.18997 18.1019 4.19004 17.9052V12.0595ZM11.768 9.17236H8.23199C6.64004 9.17236 5.34488 10.4675 5.34488 12.0595V17.9052C5.34488 18.224 5.6034 18.4826 5.9223 18.4826H14.0777C14.3966 18.4826 14.6551 18.2241 14.6551 17.9052V12.0595C14.6551 10.4675 13.36 9.17236 11.768 9.17236ZM10 1.51709C8.08547 1.51709 6.52789 3.07467 6.52789 4.98924C6.52789 6.28787 7.24465 7.42205 8.30316 8.01752C8.80523 8.29994 9.38406 8.46135 10 8.46135C10.6159 8.46135 11.1948 8.29994 11.6968 8.01752C12.7554 7.42205 13.4721 6.28783 13.4721 4.98924C13.4721 3.07471 11.9145 1.51709 10 1.51709ZM3.90305 4.75338C2.47121 4.75338 1.30637 5.91822 1.30637 7.35006C1.30637 8.78189 2.47121 9.94674 3.90305 9.94674C4.25491 9.94704 4.60311 9.87542 4.92629 9.73627C5.46949 9.5024 5.91738 9.08842 6.19453 8.56986C6.3953 8.19465 6.50015 7.77561 6.49973 7.35006C6.49973 5.91826 5.33488 4.75338 3.90305 4.75338ZM16.097 4.75338C14.6651 4.75338 13.5003 5.91822 13.5003 7.35006C13.4998 7.77561 13.6047 8.19466 13.8055 8.56986C14.0826 9.08846 14.5305 9.50244 15.0737 9.73627C15.3969 9.87542 15.7451 9.94704 16.097 9.94674C17.5288 9.94674 18.6936 8.78189 18.6936 7.35006C18.6936 5.91822 17.5288 4.75338 16.097 4.75338Z" fill="white"/>
</svg>
