<svg width="20" height="20" viewBox="0 0 20 20" fill="none" xmlns="http://www.w3.org/2000/svg">
<g clip-path="url(#clip0_1508_12513)">
<path fill-rule="evenodd" clip-rule="evenodd" d="M9.85633 16.8146V17.8114C9.85633 18.6107 9.45797 19.3007 8.76574 19.7003C8.4327 19.8926 8.06098 19.9998 7.67559 20C7.28984 20.0002 6.91824 19.8928 6.58496 19.7003L2.15309 17.1416C1.46078 16.7419 1.0625 16.052 1.0625 15.2526V2.18117C1.0625 0.978398 2.04094 0 3.24367 0H13.0043C14.2071 0 15.1856 0.97832 15.1856 2.18117V4.9366C15.1856 5.33187 14.8646 5.65281 14.4694 5.65281C14.074 5.65281 13.7533 5.33191 13.7533 4.9366V2.18117C13.7533 1.76816 13.4173 1.43211 13.0043 1.43211H4.45145L8.76574 3.9234C9.45773 4.32301 9.85633 5.01285 9.85633 5.81195V15.3824H13.0043C13.4172 15.3824 13.7533 15.0465 13.7533 14.6335V12.218C13.7533 11.8225 14.0738 11.5018 14.4694 11.5018C14.8648 11.5018 15.1856 11.8225 15.1856 12.218V14.6335C15.1856 15.8363 14.2071 16.8146 13.0043 16.8146H9.85633ZM16.4924 9.12336L15.7037 9.91207C15.424 10.1917 15.4241 10.6451 15.7037 10.9248C15.7701 10.9913 15.8491 11.0441 15.936 11.08C16.0229 11.116 16.116 11.1344 16.21 11.1343C16.3041 11.1345 16.3973 11.1161 16.4842 11.0801C16.5712 11.0441 16.6501 10.9914 16.7166 10.9248L18.7275 8.91352C19.0071 8.63391 19.0071 8.18078 18.7275 7.90117L16.7166 5.89023C16.4369 5.61055 15.9835 5.61066 15.7037 5.8902C15.4241 6.16957 15.4242 6.62312 15.7037 6.90258L16.4924 7.69109H11.2088C10.8131 7.69109 10.4927 8.01172 10.4927 8.40734C10.4927 8.80297 10.8132 9.1234 11.2088 9.1234H16.4924V9.12336Z" fill="white"/>
</g>
<defs>
<clipPath id="clip0_1508_12513">
<rect width="20" height="20" fill="white"/>
</clipPath>
</defs>
</svg>
