<svg width="24" height="24" viewBox="0 0 24 24" fill="none" xmlns="http://www.w3.org/2000/svg">
<path d="M18.3334 16.3334C17.6504 16.3334 17.065 16.7448 16.8072 17.3334H13.8776C13.6022 16.5572 12.8698 16 12 16C11.1302 16 10.3984 16.5572 10.1224 17.3334H7.1928C6.935 16.7448 6.3496 16.3334 5.6666 16.3334C4.746 16.3334 4 17.0794 4 18C4 18.9206 4.746 19.6666 5.6666 19.6666C6.3502 19.6666 6.9356 19.254 7.1928 18.6666H10.1224C10.3978 19.4414 11.1302 20 12 20C12.8698 20 13.6022 19.4414 13.8776 18.6666H16.8072C17.0644 19.254 17.6498 19.6666 18.3334 19.6666C19.254 19.6666 20 18.9206 20 18C20 17.0794 19.254 16.3334 18.3334 16.3334ZM12 18.6666C11.6314 18.6666 11.3334 18.3686 11.3334 18C11.3334 17.6314 11.6314 17.3334 12 17.3334C12.3686 17.3334 12.6666 17.6314 12.6666 18C12.6666 18.3686 12.3686 18.6666 12 18.6666ZM12 4C9.4238 4 7.3334 6.0884 7.3334 8.6666C7.3334 9.9544 7.8554 11.121 8.7006 11.9662L12 15L15.3002 11.9648C15.7344 11.5322 16.0788 11.018 16.3133 10.4517C16.5478 9.88543 16.6679 9.27832 16.6666 8.6654C16.6666 6.0898 14.5776 4 12 4ZM12 10.6666C10.8958 10.6666 10 9.7708 10 8.6666C10 7.5624 10.8958 6.6666 12 6.6666C13.1048 6.6666 14 7.5624 14 8.6666C14 9.7708 13.1048 10.6666 12 10.6666Z" fill="white"/>
</svg>
