<svg width="24" height="24" viewBox="0 0 24 24" fill="none" xmlns="http://www.w3.org/2000/svg">
<path d="M5.37453 10.1417L3.84953 10.8501C3.50787 11.0084 3.24953 11.2917 3.12453 11.6417C2.99953 11.9917 3.00787 12.3751 3.17453 12.7167L5.14953 16.9584C5.3912 17.4667 5.89953 17.7667 6.42453 17.7667C6.62453 17.7667 6.82453 17.7251 7.0162 17.6334L8.42453 16.9751L5.37453 10.1334V10.1417ZM18.6079 13.3334L14.5995 4.7334C14.3662 4.22507 13.9162 3.86674 13.3745 3.74174C12.8329 3.61674 12.2745 3.74174 11.8079 4.1334L6.4162 9.37507L9.6162 16.5584L10.5079 16.3834L17.3245 15.8334C17.8662 15.7334 18.3245 15.3917 18.5829 14.8917C18.8412 14.3917 18.8495 13.8167 18.6162 13.3167L18.6079 13.3334ZM16.2912 5.9584C16.2245 5.9584 16.1495 5.95007 16.0745 5.92507C15.9188 5.86866 15.7918 5.7527 15.7214 5.60269C15.6511 5.45268 15.6432 5.28089 15.6995 5.12507L16.0995 4.02507C16.1257 3.94572 16.1676 3.87242 16.2226 3.80952C16.2776 3.74661 16.3446 3.69538 16.4198 3.65884C16.495 3.62231 16.5767 3.60122 16.6601 3.59682C16.7436 3.59241 16.827 3.60479 16.9056 3.63321C16.9842 3.66164 17.0563 3.70553 17.1176 3.76229C17.1789 3.81906 17.2283 3.88755 17.2627 3.96371C17.297 4.03986 17.3158 4.12215 17.3179 4.20569C17.3199 4.28922 17.3052 4.37232 17.2745 4.45007L16.8745 5.55007C16.7829 5.80007 16.5412 5.9584 16.2912 5.9584ZM18.8662 8.6084C18.6329 8.6084 18.4079 8.47507 18.2995 8.25007C18.2291 8.09973 18.2212 7.92763 18.2774 7.77144C18.3336 7.61526 18.4495 7.48771 18.5995 7.41674L19.6579 6.92507C19.9745 6.77507 20.3412 6.91674 20.4912 7.22507C20.6412 7.54174 20.4995 7.9084 20.1912 8.0584L19.1329 8.55007C19.0495 8.59174 18.9579 8.6084 18.8662 8.6084ZM20.3329 12.6751C20.2662 12.6751 20.1912 12.6667 20.1162 12.6417L19.0162 12.2417C18.9368 12.2155 18.8636 12.1737 18.8006 12.1187C18.7377 12.0637 18.6865 11.9966 18.65 11.9215C18.6134 11.8463 18.5923 11.7646 18.5879 11.6812C18.5835 11.5977 18.5959 11.5142 18.6243 11.4356C18.6528 11.3571 18.6967 11.285 18.7534 11.2237C18.8102 11.1623 18.8787 11.113 18.9548 11.0786C19.031 11.0442 19.1133 11.0255 19.1968 11.0234C19.2804 11.0214 19.3635 11.0361 19.4412 11.0667L20.5412 11.4667C20.8662 11.5834 21.0329 11.9417 20.9162 12.2667C20.8245 12.5167 20.5829 12.6751 20.3245 12.6751H20.3329ZM11.7745 17.1334L10.6162 17.2251L9.32453 17.4751L8.2162 17.9917L9.0162 19.7084C9.14906 19.989 9.3872 20.2058 9.67894 20.3119C9.97068 20.418 10.2925 20.4048 10.5745 20.2751L11.7079 19.7501C12.2912 19.4751 12.5495 18.7751 12.2745 18.1917L11.7745 17.1251V17.1334Z" fill="white"/>
</svg>
