<svg width="19" height="19" viewBox="0 0 19 19" fill="none" xmlns="http://www.w3.org/2000/svg">
<path d="M7.75609 4.1702L14.8261 11.2412L7.65309 18.4152C7.32107 18.7472 6.88282 18.9518 6.41509 18.9932L6.23909 19.0002H1.00609C0.75727 19.0002 0.517202 18.9084 0.331923 18.7423C0.146643 18.5762 0.0291934 18.3475 0.00209379 18.1002L-0.00390625 17.9902V12.7572C-0.00379152 12.2877 0.161528 11.8331 0.463094 11.4732L0.583094 11.3432L7.75609 4.1702ZM10.8961 1.0302C11.25 0.676252 11.7238 0.467873 12.2238 0.446211C12.7239 0.42455 13.2139 0.591181 13.5971 0.913201L13.7241 1.0302L17.9671 5.2732C18.3208 5.62706 18.529 6.10062 18.5506 6.60045C18.5723 7.10028 18.4058 7.59007 18.0841 7.9732L17.9671 8.1012L16.2411 9.8272L9.17109 2.7562L10.8961 1.0302Z" fill="#F9A825"/>
</svg>
