<svg width="24" height="24" viewBox="0 0 24 24" fill="none" xmlns="http://www.w3.org/2000/svg">
<g clip-path="url(#clip0_1508_12507)">
<path fill-rule="evenodd" clip-rule="evenodd" d="M20.3594 13.7597C19.7315 13.398 19.3416 12.7241 19.3416 12.0003C19.3416 11.2768 19.7315 10.6029 20.3576 10.2416C21.0002 9.87215 21.2674 9.10457 20.9928 8.4166C20.6486 7.54758 20.18 6.7359 19.6034 6.00379C19.1439 5.4209 18.3457 5.26824 17.7032 5.64004C17.0771 6.00379 16.2972 6.00488 15.6693 5.64277C15.0432 5.28066 14.6552 4.6057 14.657 3.88058C14.657 3.13879 14.1261 2.52316 13.392 2.41699C12.468 2.28327 11.5295 2.28419 10.6058 2.41973C9.87351 2.52664 9.34265 3.14191 9.34445 3.88223C9.34445 4.60644 8.95632 5.28101 8.33027 5.64277C7.70234 6.00449 6.92433 6.00375 6.29644 5.64039C5.6539 5.26859 4.85574 5.42199 4.39625 6.00488C4.1085 6.37068 3.84728 6.75659 3.61457 7.15965C3.38207 7.56222 3.17886 7.98418 3.00679 8.41308C2.73035 9.10215 2.99765 9.87082 3.64019 10.2412C4.26812 10.6025 4.65804 11.2768 4.65804 12.0002C4.65804 12.7237 4.26812 13.3974 3.64203 13.7593C2.99949 14.1287 2.73222 14.8959 3.00679 15.5837C3.35039 16.4512 3.81845 17.264 4.39625 17.9967C4.85574 18.5796 5.6539 18.7322 6.29644 18.3604C6.92254 17.9967 7.70238 17.9959 8.33027 18.3577C8.95632 18.7198 9.34445 19.3948 9.34445 20.1199C9.34261 20.8615 9.87531 21.4771 10.6076 21.5835C11.0653 21.6498 11.5272 21.6831 11.9897 21.6831C12.4584 21.6831 12.927 21.649 13.3938 21.5807C14.1261 21.4736 14.6569 20.8589 14.6569 20.1186C14.6551 19.394 15.0432 18.7194 15.6693 18.3577C16.2971 17.996 17.0752 17.9967 17.7031 18.3601C18.3456 18.7319 19.1438 18.5788 19.6033 17.9956C19.8909 17.6298 20.1521 17.244 20.385 16.8412C20.6156 16.4386 20.8225 16.0166 20.9927 15.5874C21.2693 14.8983 21.002 14.1295 20.3594 13.7597ZM14.4904 13.4386C14.1078 14.1039 13.4872 14.58 12.744 14.7788C12.0026 14.9776 11.2264 14.8757 10.5618 14.4912C9.18886 13.6982 8.71656 11.9358 9.50921 10.5619C10.0401 9.64035 11.0103 9.12449 12.0044 9.12449C12.4932 9.12449 12.9856 9.24824 13.4378 9.5093C14.8107 10.3021 15.283 12.065 14.4904 13.4386Z" fill="white"/>
</g>
<defs>
<clipPath id="clip0_1508_12507">
<rect width="20" height="20" fill="white" transform="translate(2 2)"/>
</clipPath>
</defs>
</svg>
