<svg width="24" height="24" viewBox="0 0 24 24" fill="none" xmlns="http://www.w3.org/2000/svg">
<g clip-path="url(#clip0_638_27250)">
<path d="M17.4167 3.66667H17V3.25C17 2.91848 16.8683 2.60054 16.6339 2.36612C16.3995 2.1317 16.0815 2 15.75 2C15.4185 2 15.1005 2.1317 14.8661 2.36612C14.6317 2.60054 14.5 2.91848 14.5 3.25V3.66667H9.5V3.25C9.5 2.91848 9.3683 2.60054 9.13388 2.36612C8.89946 2.1317 8.58152 2 8.25 2C7.91848 2 7.60054 2.1317 7.36612 2.36612C7.1317 2.60054 7 2.91848 7 3.25V3.66667H6.58333C5.36816 3.66799 4.20314 4.1513 3.34389 5.01056C2.48463 5.86981 2.00132 7.03483 2 8.25L2 17.4167C2 19.9442 4.05667 22 6.58333 22H17.4167C19.9433 22 22 19.9442 22 17.4167V8.25C22 5.7225 19.9433 3.66667 17.4167 3.66667ZM17.4167 19.5H6.58333C6.031 19.4993 5.50148 19.2796 5.11092 18.8891C4.72037 18.4985 4.50066 17.969 4.5 17.4167V9.5H19.5V17.4167C19.5 18.565 18.5658 19.5 17.4167 19.5ZM10.3333 12.4167V14.0833C10.3333 14.4149 10.2016 14.7328 9.96722 14.9672C9.7328 15.2016 9.41485 15.3333 9.08333 15.3333H7.41667C7.08515 15.3333 6.7672 15.2016 6.53278 14.9672C6.29836 14.7328 6.16667 14.4149 6.16667 14.0833V12.4167C6.16667 12.0851 6.29836 11.7672 6.53278 11.5328C6.7672 11.2984 7.08515 11.1667 7.41667 11.1667H9.08333C9.41485 11.1667 9.7328 11.2984 9.96722 11.5328C10.2016 11.7672 10.3333 12.0851 10.3333 12.4167Z" fill="white"/>
</g>
<defs>
<clipPath id="clip0_638_27250">
<rect width="20" height="20" fill="white" transform="translate(2 2)"/>
</clipPath>
</defs>
</svg>
