<svg width="20" height="20" viewBox="0 0 20 20" fill="none" xmlns="http://www.w3.org/2000/svg">
<g clip-path="url(#clip0_638_19263)">
<path d="M9.16683 3.33331V6.66665C9.16683 7.32969 8.90344 7.96557 8.4346 8.43441C7.96576 8.90325 7.32987 9.16665 6.66683 9.16665H3.3335C2.67046 9.16665 2.03457 8.90325 1.56573 8.43441C1.09689 7.96557 0.833496 7.32969 0.833496 6.66665V3.33331C0.833496 2.67027 1.09689 2.03439 1.56573 1.56555C2.03457 1.09671 2.67046 0.833313 3.3335 0.833313H6.66683C7.32987 0.833313 7.96576 1.09671 8.4346 1.56555C8.90344 2.03439 9.16683 2.67027 9.16683 3.33331ZM16.6668 0.833313H13.3335C12.6705 0.833313 12.0346 1.09671 11.5657 1.56555C11.0969 2.03439 10.8335 2.67027 10.8335 3.33331V6.66665C10.8335 7.32969 11.0969 7.96557 11.5657 8.43441C12.0346 8.90325 12.6705 9.16665 13.3335 9.16665H16.6668C17.3299 9.16665 17.9658 8.90325 18.4346 8.43441C18.9034 7.96557 19.1668 7.32969 19.1668 6.66665V3.33331C19.1668 2.67027 18.9034 2.03439 18.4346 1.56555C17.9658 1.09671 17.3299 0.833313 16.6668 0.833313ZM6.66683 10.8333H3.3335C2.67046 10.8333 2.03457 11.0967 1.56573 11.5655C1.09689 12.0344 0.833496 12.6703 0.833496 13.3333V16.6666C0.833496 17.3297 1.09689 17.9656 1.56573 18.4344C2.03457 18.9033 2.67046 19.1666 3.3335 19.1666H6.66683C7.32987 19.1666 7.96576 18.9033 8.4346 18.4344C8.90344 17.9656 9.16683 17.3297 9.16683 16.6666V13.3333C9.16683 12.6703 8.90344 12.0344 8.4346 11.5655C7.96576 11.0967 7.32987 10.8333 6.66683 10.8333ZM16.6668 10.8333H13.3335C12.6705 10.8333 12.0346 11.0967 11.5657 11.5655C11.0969 12.0344 10.8335 12.6703 10.8335 13.3333V16.6666C10.8335 17.3297 11.0969 17.9656 11.5657 18.4344C12.0346 18.9033 12.6705 19.1666 13.3335 19.1666H16.6668C17.3299 19.1666 17.9658 18.9033 18.4346 18.4344C18.9034 17.9656 19.1668 17.3297 19.1668 16.6666V13.3333C19.1668 12.6703 18.9034 12.0344 18.4346 11.5655C17.9658 11.0967 17.3299 10.8333 16.6668 10.8333Z" fill="white"/>
</g>
<defs>
<clipPath id="clip0_638_19263">
<rect width="20" height="20" fill="white"/>
</clipPath>
</defs>
</svg>
