<svg width="24" height="24" viewBox="0 0 24 24" fill="none" xmlns="http://www.w3.org/2000/svg">
<g clip-path="url(#clip0_633_12010)">
<path fill-rule="evenodd" clip-rule="evenodd" d="M20.3597 13.7594C19.7318 13.3977 19.3418 12.7239 19.3418 12C19.3418 11.2766 19.7317 10.6027 20.3578 10.2413C21.0004 9.8719 21.2677 9.10432 20.9931 8.41636C20.6489 7.54733 20.1802 6.73565 19.6036 6.00354C19.1441 5.42065 18.3459 5.268 17.7034 5.63979C17.0774 6.00354 16.2975 6.00464 15.6696 5.64253C15.0435 5.28042 14.6554 4.60546 14.6572 3.88034C14.6572 3.13854 14.1263 2.52292 13.3923 2.41675C12.4683 2.28303 11.5298 2.28395 10.606 2.41948C9.87376 2.5264 9.3429 3.14167 9.34469 3.88198C9.34469 4.6062 8.95657 5.28077 8.33051 5.64253C7.70258 6.00425 6.92458 6.0035 6.29669 5.64015C5.65415 5.26835 4.85598 5.42175 4.39649 6.00464C4.10875 6.37044 3.84752 6.75634 3.61481 7.1594C3.38231 7.56198 3.17911 7.98393 3.00704 8.41284C2.73059 9.1019 2.9979 9.87057 3.64044 10.2409C4.26837 10.6023 4.65829 11.2765 4.65829 12C4.65829 12.7235 4.26837 13.3971 3.64227 13.7591C2.99973 14.1285 2.73247 14.8957 3.00704 15.5835C3.35063 16.451 3.81869 17.2638 4.39649 17.9964C4.85598 18.5793 5.65415 18.732 6.29669 18.3602C6.92278 17.9964 7.70262 17.9957 8.33051 18.3574C8.95657 18.7196 9.34469 19.3945 9.34469 20.1196C9.34286 20.8612 9.87555 21.4769 10.6078 21.5833C11.0655 21.6495 11.5274 21.6828 11.9899 21.6828C12.4586 21.6828 12.9272 21.6488 13.394 21.5805C14.1263 21.4734 14.6572 20.8587 14.6572 20.1183C14.6553 19.3938 15.0434 18.7192 15.6695 18.3574C16.2974 17.9957 17.0754 17.9965 17.7033 18.3598C18.3459 18.7316 19.144 18.5786 19.6035 17.9953C19.8911 17.6295 20.1523 17.2438 20.3852 16.8409C20.6159 16.4384 20.8227 16.0164 20.993 15.5871C21.2695 14.8981 21.0022 14.1292 20.3597 13.7594ZM14.4906 13.4383C14.108 14.1036 13.4874 14.5798 12.7442 14.7786C12.0028 14.9774 11.2266 14.8754 10.5621 14.491C9.18911 13.6979 8.7168 11.9356 9.50946 10.5617C10.0404 9.64011 11.0106 9.12425 12.0046 9.12425C12.4934 9.12425 12.9859 9.248 13.438 9.50905C14.811 10.3019 15.2833 12.0648 14.4906 13.4383Z" fill="white"/>
</g>
<defs>
<clipPath id="clip0_633_12010">
<rect width="20" height="20" fill="white" transform="translate(2 2)"/>
</clipPath>
</defs>
</svg>
