<svg width="24" height="24" viewBox="0 0 24 24" fill="none" xmlns="http://www.w3.org/2000/svg">
<path d="M20 21C20.2652 21 20.5196 21.1054 20.7071 21.2929C20.8946 21.4804 21 21.7348 21 22C21 22.2652 20.8946 22.5196 20.7071 22.7071C20.5196 22.8947 20.2652 23 20 23H4C3.73478 23 3.48043 22.8947 3.29289 22.7071C3.10536 22.5196 3 22.2652 3 22C3 21.7348 3.10536 21.4804 3.29289 21.2929C3.48043 21.1054 3.73478 21 4 21H5.049C5.195 19.164 5.792 15.25 8.243 13C5.658 10.489 5.132 5.26602 5.027 3.00002H4C3.73478 3.00002 3.48043 2.89466 3.29289 2.70712C3.10536 2.51959 3 2.26523 3 2.00002C3 1.7348 3.10536 1.48044 3.29289 1.29291C3.48043 1.10537 3.73478 1.00002 4 1.00002H20C20.2652 1.00002 20.5196 1.10537 20.7071 1.29291C20.8946 1.48044 21 1.7348 21 2.00002C21 2.26523 20.8946 2.51959 20.7071 2.70712C20.5196 2.89466 20.2652 3.00002 20 3.00002H18.973C18.868 5.26402 18.342 10.487 15.757 13C18.208 15.252 18.805 19.166 18.951 21H20ZM13.58 13.874C13.4211 13.7858 13.2893 13.6559 13.1987 13.4984C13.1081 13.3409 13.0621 13.1617 13.0657 12.98C13.0693 12.7983 13.1223 12.621 13.2191 12.4672C13.3159 12.3134 13.4528 12.1889 13.615 12.107C16.052 10.879 16.815 5.79601 16.97 3.00002H7.03C7.181 5.80001 7.948 10.879 10.385 12.107C10.5472 12.1889 10.6841 12.3134 10.7809 12.4672C10.8777 12.621 10.9307 12.7983 10.9343 12.98C10.9379 13.1617 10.8919 13.3409 10.8013 13.4984C10.7107 13.6559 10.5789 13.7858 10.42 13.874C7.881 15.283 7.227 19.156 7.058 21H16.942C16.773 19.156 16.119 15.283 13.58 13.874ZM12 11C12 11 15 8.60001 15 7.40001V4.00002H9V7.40001C9 8.60001 12 11 12 11Z" fill="#FB903E"/>
</svg>
