<svg width="24" height="24" viewBox="0 0 24 24" fill="none" xmlns="http://www.w3.org/2000/svg">
<path fill-rule="evenodd" clip-rule="evenodd" d="M8 3.99953C6.93913 3.99953 5.92172 4.42095 5.17157 5.1711C4.42143 5.92124 4 6.93866 4 7.99953C4 9.06039 4.42143 10.0778 5.17157 10.828C5.92172 11.5781 6.93913 11.9995 8 11.9995C9.06087 11.9995 10.0783 11.5781 10.8284 10.828C11.5786 10.0778 12 9.06039 12 7.99953C12 6.93866 11.5786 5.92124 10.8284 5.1711C10.0783 4.42095 9.06087 3.99953 8 3.99953ZM6 12.9995C4.93913 12.9995 3.92172 13.421 3.17157 14.1711C2.42143 14.9212 2 15.9387 2 16.9995V17.9995C2 18.53 2.21071 19.0387 2.58579 19.4137C2.96086 19.7888 3.46957 19.9995 4 19.9995H12C12.5304 19.9995 13.0391 19.7888 13.4142 19.4137C13.7893 19.0387 14 18.53 14 17.9995V16.9995C14 15.9387 13.5786 14.9212 12.8284 14.1711C12.0783 13.421 11.0609 12.9995 10 12.9995H6ZM13.25 10.9045C13.728 10.0445 14 9.05453 14 7.99953C14.0002 6.98296 13.7421 5.98302 13.25 5.09353C13.8178 4.55625 14.5306 4.19714 15.3003 4.06055C16.07 3.92397 16.8628 4.01591 17.5808 4.32501C18.2988 4.63411 18.9106 5.14682 19.3403 5.79978C19.7701 6.45273 19.9992 7.21731 19.9992 7.99903C19.9992 8.78074 19.7701 9.54532 19.3403 10.1983C18.9106 10.8512 18.2988 11.3639 17.5808 11.673C16.8628 11.9821 16.07 12.0741 15.3003 11.9375C14.5306 11.8009 13.8178 11.4418 13.25 10.9045ZM15.466 19.9995C15.806 19.4115 16.001 18.7285 16.001 17.9995V16.9995C16.0028 15.5233 15.4586 14.0986 14.473 12.9995H18C19.0609 12.9995 20.0783 13.421 20.8284 14.1711C21.5786 14.9212 22 15.9387 22 16.9995V17.9995C22 18.53 21.7893 19.0387 21.4142 19.4137C21.0391 19.7888 20.5304 19.9995 20 19.9995H15.466Z" fill="black"/>
</svg>
